<?xml version="1.0" encoding="UTF-8"?>
<svg width="18px" height="18px" viewBox="0 0 18 18" version="1.1" xmlns="http://www.w3.org/2000/svg" xmlns:xlink="http://www.w3.org/1999/xlink">
    <!-- Generator: Sketch 52.6 (67491) - http://www.bohemiancoding.com/sketch -->
    <title>Group 2</title>
    <desc>Created with Sketch.</desc>
    <g id="Page-1" stroke="none" stroke-width="1" fill="none" fill-rule="evenodd">
        <g id="Group-2" transform="translate(-1.000000, -1.000000)" fill="#FFFFFF" fill-rule="nonzero">
            <path d="M10.0124258,-0.95318264 L10.3034311,-0.95318264 C11.684143,-0.95318264 12.8034311,0.166105485 12.8034311,1.54681736 L12.8034311,18.7690396 C12.8034311,20.1497515 11.684143,21.2690396 10.3034311,21.2690396 L10.0124258,21.2690396 C8.63171395,21.2690396 7.51242583,20.1497515 7.51242583,18.7690396 L7.51242583,1.54681736 C7.51242583,0.166105485 8.63171395,-0.95318264 10.0124258,-0.95318264 Z" id="Rectangle" transform="translate(10.157928, 10.157928) rotate(45.000000) translate(-10.157928, -10.157928) "></path>
            <path d="M9.88015069,-0.424082111 L10.4357062,-0.424082111 C11.8164181,-0.424082111 12.9357062,0.695206014 12.9357062,2.07591789 L12.9357062,18.2399391 C12.9357062,19.6206509 11.8164181,20.7399391 10.4357062,20.7399391 L9.88015069,20.7399391 C8.49943882,20.7399391 7.38015069,19.6206509 7.38015069,18.2399391 L7.38015069,2.07591789 C7.38015069,0.695206014 8.49943882,-0.424082111 9.88015069,-0.424082111 Z" id="Rectangle" transform="translate(10.157928, 10.157928) rotate(135.000000) translate(-10.157928, -10.157928) "></path>
        </g>
    </g>
</svg>