<?xml version="1.0" encoding="UTF-8"?>
<svg width="70px" height="70px" viewBox="0 0 70 70" version="1.1" xmlns="http://www.w3.org/2000/svg" xmlns:xlink="http://www.w3.org/1999/xlink">
    <!-- Generator: Sketch 53.1 (72631) - https://sketchapp.com -->
    <title>login-b</title>
    <desc>Created with Sketch.</desc>
    <g id="Page-1" stroke="none" stroke-width="1" fill="none" fill-rule="evenodd">
        <g id="login-b" fill="#9013FE" fill-rule="nonzero">
            <path d="M34.9960886,34.9999996 C25.3329031,34.9978861 17.5,27.1636793 17.5,17.5 C17.5,7.83501688 25.3350169,0 35,0 C44.6649831,0 52.5,7.83501688 52.5,17.5 C52.5,27.1636793 44.6670969,34.9978861 35.0039114,34.9999996 C43.286385,34.997886 50,28.2829674 50,20 C50,11.7157288 43.2842712,5 35,5 C26.7157288,5 20,11.7157288 20,20 C20,28.2829674 26.713615,34.997886 34.9960886,34.9999995 Z M35,70 C15.6700338,70 0,62.1649831 0,52.5 C0,42.8350169 15.6700338,35 35,35 C54.3299662,35 70,42.8350169 70,52.5 C70,62.1649831 54.3299662,70 35,70 Z M35,65 C51.5685425,65 65,58.2842712 65,50 C65,41.7157288 51.5685425,35 35,35 C18.4314575,35 5,41.7157288 5,50 C5,58.2842712 18.4314575,65 35,65 Z" id="Combined-Shape"></path>
        </g>
    </g>
</svg>