<?xml version="1.0" encoding="UTF-8"?>
<svg width="84px" height="80px" viewBox="0 0 84 80" version="1.1" xmlns="http://www.w3.org/2000/svg" xmlns:xlink="http://www.w3.org/1999/xlink">
    <!-- Generator: Sketch 53.1 (72631) - https://sketchapp.com -->
    <title>star</title>
    <desc>Created with Sketch.</desc>
    <g id="Page-1" stroke="none" stroke-width="1" fill="none" fill-rule="evenodd">
        <g id="star" fill="#F8E71C" fill-rule="nonzero">
            <path d="M40.6386355,68.7285772 L21.1663039,78.9657878 C19.2109255,79.993791 16.7924169,79.242005 15.7644137,77.2866266 C15.3550574,76.5079847 15.2137987,75.6161124 15.3625061,74.7490819 L19.0813905,53.066322 C19.3039422,51.7687457 18.8737483,50.4447449 17.931004,49.5257963 L2.17755676,34.1699804 C0.59562245,32.6279756 0.56325323,30.0955225 2.10525807,28.5135882 C2.71929249,27.8836537 3.5238621,27.473705 4.3944103,27.3472069 L26.1651388,24.1837349 C27.4679795,23.9944211 28.5942418,23.1761436 29.1768899,21.9955697 L38.9130557,2.267943 C39.8907449,0.28692836 42.2892482,-0.52642763 44.2702628,0.45126154 C45.0591133,0.8405825 45.6976233,1.47909258 46.0869443,2.267943 L55.8231101,21.9955697 C56.4057582,23.1761436 57.5320205,23.9944211 58.8348612,24.1837349 L80.6055897,27.3472069 C82.7917692,27.6648774 84.306495,29.6946488 83.9888245,31.8808282 C83.8623265,32.7513764 83.4523778,33.555946 82.8224432,34.1699804 L67.068996,49.5257963 C66.1262517,50.4447449 65.6960578,51.7687457 65.9186095,53.066322 L69.6374939,74.7490819 C70.010938,76.9264276 68.5485867,78.9942514 66.3712409,79.3676954 C65.5042104,79.5164028 64.612338,79.3751441 63.8336961,78.9657878 L44.3613645,68.7285772 C43.1960684,68.1159448 41.8039316,68.1159448 40.6386355,68.7285772 Z" id="Star"></path>
        </g>
    </g>
</svg>