<?xml version="1.0" encoding="UTF-8"?>
<svg width="103px" height="99px" viewBox="0 0 103 99" version="1.1" xmlns="http://www.w3.org/2000/svg" xmlns:xlink="http://www.w3.org/1999/xlink">
    <!-- Generator: Sketch 53.1 (72631) - https://sketchapp.com -->
    <title>Star</title>
    <desc>Created with Sketch.</desc>
    <defs>
        <filter x="-3.6%" y="-20.6%" width="107.2%" height="141.2%" filterUnits="objectBoundingBox" id="filter-1">
            <feOffset dx="0" dy="0" in="SourceAlpha" result="shadowOffsetOuter1"></feOffset>
            <feGaussianBlur stdDeviation="5" in="shadowOffsetOuter1" result="shadowBlurOuter1"></feGaussianBlur>
            <feColorMatrix values="0 0 0 0 0   0 0 0 0 0   0 0 0 0 0  0 0 0 0.5 0" type="matrix" in="shadowBlurOuter1" result="shadowMatrixOuter1"></feColorMatrix>
            <feMerge>
                <feMergeNode in="shadowMatrixOuter1"></feMergeNode>
                <feMergeNode in="SourceGraphic"></feMergeNode>
            </feMerge>
        </filter>
    </defs>
    <g id="Page-1" stroke="none" stroke-width="1" fill="none" fill-rule="evenodd">
        <g id="EB" transform="translate(-759.000000, -462.000000)" fill="#F8E71C" fill-rule="nonzero">
            <g id="mail" filter="url(#filter-1)" transform="translate(761.000000, 467.000000)">
                <path d="M47.6386355,73.7285772 L28.1663039,83.9657878 C26.2109255,84.993791 23.7924169,84.242005 22.7644137,82.2866266 C22.3550574,81.5079847 22.2137987,80.6161124 22.3625061,79.7490819 L26.0813905,58.066322 C26.3039422,56.7687457 25.8737483,55.4447449 24.931004,54.5257963 L9.17755676,39.1699804 C7.59562245,37.6279756 7.56325323,35.0955225 9.10525807,33.5135882 C9.71929249,32.8836537 10.5238621,32.473705 11.3944103,32.3472069 L33.1651388,29.1837349 C34.4679795,28.9944211 35.5942418,28.1761436 36.1768899,26.9955697 L45.9130557,7.267943 C46.8907449,5.28692836 49.2892482,4.47357237 51.2702628,5.45126154 C52.0591133,5.8405825 52.6976233,6.47909258 53.0869443,7.267943 L62.8231101,26.9955697 C63.4057582,28.1761436 64.5320205,28.9944211 65.8348612,29.1837349 L87.6055897,32.3472069 C89.7917692,32.6648774 91.306495,34.6946488 90.9888245,36.8808282 C90.8623265,37.7513764 90.4523778,38.555946 89.8224432,39.1699804 L74.068996,54.5257963 C73.1262517,55.4447449 72.6960578,56.7687457 72.9186095,58.066322 L76.6374939,79.7490819 C77.010938,81.9264276 75.5485867,83.9942514 73.3712409,84.3676954 C72.5042104,84.5164028 71.612338,84.3751441 70.8336961,83.9657878 L51.3613645,73.7285772 C50.1960684,73.1159448 48.8039316,73.1159448 47.6386355,73.7285772 Z" id="Star"></path>
            </g>
        </g>
    </g>
</svg>